{"accessors" : [{"bufferView" : 0, "byteOffset" : 0, "componentType" : 5123, "count" : 2241, "type" : "SCALAR", "max" : [2240], "min" : [0]}, {"bufferView" : 1, "byteOffset" : 0, "componentType" : 5126, "count" : 2241, "type" : "VEC3", "max" : [6.007606029510498, 4.154843330383301, 0.8382425308227539], "min" : [2.737672805786133, -0.09355694055557251, -0.8382425308227539], "name" : "POSITION"}, {"bufferView" : 1, "byteOffset" : 12, "componentType" : 5126, "count" : 2241, "type" : "VEC3", "max" : [1.0000007152557373, 1.0000044107437134, 1.0000044107437134], "min" : [-0.9954487681388855, -1.0000044107437134, -1.0000044107437134], "name" : "NORMAL"}, {"bufferView" : 1, "byteOffset" : 24, "componentType" : 5126, "count" : 2241, "type" : "VEC2", "max" : [0.7500000596046448, -0], "min" : [0.24988311529159546, -0.9970642328262329], "name" : "TEXCOORD_0"}, {"bufferView" : 0, "byteOffset" : 4484, "componentType" : 5123, "count" : 1080, "type" : "SCALAR", "max" : [1079], "min" : [0]}, {"bufferView" : 2, "byteOffset" : 0, "componentType" : 5126, "count" : 1080, "type" : "VEC3", "max" : [6.186036586761475, 37.676780700683594, 0.6607405543327332], "min" : [4.546539783477783, -2.0375900268554688, -0.6031458377838135], "name" : "POSITION"}, {"bufferView" : 2, "byteOffset" : 12, "componentType" : 5126, "count" : 1080, "type" : "VEC3", "max" : [1.0000044107437134, 1.0000044107437134, 1.0000044107437134], "min" : [-1.0000044107437134, -1.0000044107437134, -1.0000044107437134], "name" : "NORMAL"}, {"bufferView" : 2, "byteOffset" : 24, "componentType" : 5126, "count" : 1080, "type" : "VEC2", "max" : [1, -0], "min" : [0, -1], "name" : "TEXCOORD_0"}], "asset" : {"generator" : "Aspose.3D 23.2", "version" : "2.0"}, "buffers" : [{"uri" : "data:application/octet-stream;base64,", "byteLength" : 112928}], "bufferViews" : [{"buffer" : 0, "byteOffset" : 0, "byteLength" : 6644, "target" : 34963}, {"buffer" : 0, "byteOffset" : 6648, "byteLength" : 71712, "byteStride" : 32, "target" : 34962}, {"buffer" : 0, "byteOffset" : 78364, "byteLength" : 34560, "byteStride" : 32, "target" : 34962}], "materials" : [{"name" : "lambert1", "pbrMetallicRoughness" : {"baseColorFactor" : [0.5, 0.5, 0.5, 1], "metallicFactor" : 0, "roughnessFactor" : 0}, "emissiveFactor" : [0, 0, 0], "alphaMode" : "OPAQUE", "doubleSided" : false}, {"name" : "lambert1", "pbrMetallicRoughness" : {"baseColorFactor" : [0.5, 0.5, 0.5, 1], "metallicFactor" : 0, "roughnessFactor" : 0}, "emissiveFactor" : [0, 0, 0], "alphaMode" : "OPAQUE", "doubleSided" : false}], "meshes" : [{"primitives" : [{"attributes" : {"POSITION" : 1, "NORMAL" : 2, "TEXCOORD_0" : 3}, "indices" : 0, "material" : 0, "mode" : 4}], "name" : ""}, {"primitives" : [{"attributes" : {"POSITION" : 5, "NORMAL" : 6, "TEXCOORD_0" : 7}, "indices" : 4, "material" : 1, "mode" : 4}], "name" : ""}], "nodes" : [{"mesh" : 0, "name" : "bags:pCube4"}, {"matrix" : [0.8101154686576378, 0, 0, 0, 0, -1.544825813099788E-16, -0.05069337150287365, 0, 0, 1.0000000000000002, -3.0473921289930715E-15, 0, 0, 3.252671016418813, 0.9033353373833298, 1], "mesh" : 1, "name" : "bags:polySurface3"}, {"children" : [0, 1], "matrix" : [1.0037113243752493, 0, 0, 0, 0, 1.2049139140778862, 0, 0, 0, 0, 0.7073723592701592, 0, 0, 0, 0, 1], "name" : "bags:group1"}], "scene" : 0, "scenes" : [{"nodes" : [2]}]}